<?xml version="1.0" standalone="no"?>
<!DOCTYPE svg PUBLIC "-//W3C//DTD SVG 20010904//EN"
 "http://www.w3.org/TR/2001/REC-SVG-20010904/DTD/svg10.dtd">
<svg version="1.0" xmlns="http://www.w3.org/2000/svg"
 width="600.000000pt" height="600.000000pt" viewBox="0 0 600.000000 600.000000"
 preserveAspectRatio="xMidYMid meet">
<metadata>
Created by potrace 1.11, written by Peter Selinger 2001-2013
</metadata>
<g transform="translate(0.000000,600.000000) scale(0.100000,-0.100000)"
fill="#000000" stroke="none">
<path d="M1079 5996 c-2 -2 -26 -7 -54 -10 -180 -24 -391 -111 -545 -226 -67
-50 -182 -164 -237 -236 -81 -103 -164 -274 -199 -404 -43 -165 -42 -123 -43
-2120 0 -1806 1 -1910 18 -2005 33 -176 90 -319 189 -470 52 -79 200 -233 282
-293 147 -107 328 -182 525 -219 22 -4 906 -8 1965 -10 1622 -2 1937 0 2003
12 328 59 589 216 776 465 114 152 203 363 228 540 10 71 11 3888 0 3956 -46
312 -225 607 -479 793 -126 91 -338 185 -468 206 -25 4 -54 10 -65 13 -22 7
-3889 15 -3896 8z"/>
</g>
</svg>
